# xmcd CD database file
#
# Track frame offsets:
#	150
#	23560
#	45663
#	72518
#	90313
#	107545
#	116659
#	124495
#	137828
#	159530
#	173302
#	191732
#	206818
#
# Disc length: 3093 seconds
#
# Revision: 0
# Processed by: cddbd v1.5.2PL0 Copyright (c) Steve Scherf et al.
# Submitted via: CDex 1.70beta2
#
DISCID=b00c130d
DTITLE=DayDream - KASSATION(Vol. 6)
DYEAR=2010
DGENRE=New Age
TTITLE0=Rainy Days
TTITLE1=Remembering You
TTITLE2=Happy Spring
TTITLE3=When I Was Young
TTITLE4=Morning Of the Provence
TTITLE5=Rhapsody In Winter
TTITLE6=Kassation
TTITLE7=Young Once
TTITLE8=Lying In The Green Fields
TTITLE9=Little Picnic
TTITLE10=Petal Chair
TTITLE11=Singing The Hope
TTITLE12=Smile And Smile
EXTD=YEAR: 2010
EXTT0=
EXTT1=
EXTT2=
EXTT3=
EXTT4=
EXTT5=
EXTT6=
EXTT7=
EXTT8=
EXTT9=
EXTT10=
EXTT11=
EXTT12=
PLAYORDER=
